<svg width="24" height="24" viewBox="0 0 24 24" xmlns="http://www.w3.org/2000/svg">
    <path d="M15.158 15.684C18.937 15.684 22 18.512 22 22H8.316l5.549-5.905c.189-.2.429-.334.688-.386.2-.017.401-.025.605-.025zm-12.252.9.061-.064a2.7 2.7 0 0 1 1.93-.822l7.63-.014-5.25 5.387a3.036 3.036 0 0 1-4.371 0 3.232 3.232 0 0 1 0-4.487zM21.122 2.88a3.01 3.01 0 0 1 0 4.25l-7.096 7.111c-.25.25-.586.39-.938.39H5.158l11.724-11.75a2.993 2.993 0 0 1 4.24 0zm-8.596 3.33-1.36 1.238a3.333 3.333 0 0 1-2.244.868l-4.817-.002A2.567 2.567 0 0 1 6.63 6.211h5.896zM15.684 2l-1.427 1.266c-.61.54-1.397.84-2.212.84L2 4.103A2.58 2.58 0 0 1 4.536 2h11.148z" fill="#10A310" fill-rule="evenodd"/>
</svg>
