<svg xmlns="http://www.w3.org/2000/svg" xmlns:xlink="http://www.w3.org/1999/xlink" width="360" height="270" viewBox="0 0 360 270">
    <defs>
        <linearGradient id="4ugeyuuh9a" x1="52.248%" x2="0%" y1="50%" y2="50%">
            <stop offset="0%" stop-color="#FAFAFA"/>
            <stop offset="100%" stop-color="#FFF"/>
        </linearGradient>
        <linearGradient id="37q0ay4wxb" x1="0%" x2="100%" y1="56.614%" y2="41.439%">
            <stop offset="0%" stop-color="#F5F5F5"/>
            <stop offset="100%" stop-color="#E0E0E0"/>
        </linearGradient>
        <linearGradient id="xcll4c737c" x1="0%" x2="100%" y1="59.656%" y2="37.5%">
            <stop offset="0%" stop-color="#F5F5F5"/>
            <stop offset="100%" stop-color="#E0E0E0"/>
        </linearGradient>
        <linearGradient id="knv17ffyvd" x1="89.784%" x2="-12.738%" y1="27.736%" y2="41.767%">
            <stop offset="0%" stop-color="#C7C7C7"/>
            <stop offset="100%" stop-color="#FFF"/>
        </linearGradient>
        <linearGradient id="uh08nn0qge" x1="50%" x2="0%" y1="50%" y2="50%">
            <stop offset="0%" stop-color="#F5F5F5"/>
            <stop offset="100%" stop-color="#FFF"/>
        </linearGradient>
        <linearGradient id="l451ov7hzf" x1="100%" x2="4.948%" y1="50%" y2="50%">
            <stop offset="0%" stop-color="#C7C7C7"/>
            <stop offset="100%" stop-color="#FFF"/>
        </linearGradient>
        <linearGradient id="zkv9f6vzeg" x1="116.955%" x2="-12.738%" y1="41.648%" y2="41.648%">
            <stop offset="0%" stop-color="#FFF"/>
            <stop offset="100%" stop-color="#C7C7C7"/>
        </linearGradient>
        <linearGradient id="bovp21fzhh" x1="7.468%" x2="112.658%" y1="50%" y2="50%">
            <stop offset="0%" stop-color="#FFF"/>
            <stop offset="100%" stop-color="#858585"/>
        </linearGradient>
        <linearGradient id="ukv62yoq6k" x1="0%" x2="100%" y1="50%" y2="50%">
            <stop offset="0%" stop-color="#28C72D"/>
            <stop offset="100%" stop-color="#10A310"/>
        </linearGradient>
        <linearGradient id="sqrspjfntl" x1="0%" x2="100%" y1="50%" y2="50%">
            <stop offset="0%" stop-color="#28C72D"/>
            <stop offset="100%" stop-color="#10A310"/>
        </linearGradient>
        <linearGradient id="yah21n8sgm" x1="0%" x2="100%" y1="50%" y2="50%">
            <stop offset="0%"/>
            <stop offset="100%" stop-color="#1F1F1F"/>
        </linearGradient>
        <linearGradient id="g3h73lb59n" x1="0%" x2="100%" y1="50%" y2="50%">
            <stop offset="0%"/>
            <stop offset="100%" stop-color="#1F1F1F"/>
        </linearGradient>
        <linearGradient id="11d3pytnoo" x1="0%" x2="100%" y1="50%" y2="50%">
            <stop offset="0%"/>
            <stop offset="100%" stop-color="#1F1F1F"/>
        </linearGradient>
        <linearGradient id="472gpax62p" x1="0%" x2="100%" y1="50%" y2="50%">
            <stop offset="0%"/>
            <stop offset="100%" stop-color="#1F1F1F"/>
        </linearGradient>
        <linearGradient id="ke38qzbgaq" x1="0%" x2="100%" y1="50%" y2="50%">
            <stop offset="0%" stop-color="#1F1F1F"/>
            <stop offset="100%"/>
        </linearGradient>
        <linearGradient id="033ju7b75r" x1="0%" x2="100%" y1="50%" y2="50%">
            <stop offset="0%"/>
            <stop offset="100%" stop-color="#1F1F1F"/>
        </linearGradient>
        <linearGradient id="99gle43dhs" x1="7.468%" x2="112.658%" y1="50%" y2="50%">
            <stop offset="0%" stop-color="#FFF"/>
            <stop offset="100%" stop-color="#858585"/>
        </linearGradient>
        <linearGradient id="ofxidk47hu" x1="0%" x2="100%" y1="50%" y2="50%">
            <stop offset="0%" stop-color="#28C72D"/>
            <stop offset="100%" stop-color="#10A310"/>
        </linearGradient>
        <linearGradient id="8i3crllnqv" x1="-43.962%" x2="53.707%" y1="50%" y2="50%">
            <stop offset="0%" stop-color="#28C72D"/>
            <stop offset="100%" stop-color="#10A310"/>
        </linearGradient>
        <path id="ltcbzyo5ri" d="M0 0H158.108V126.486H0z"/>
        <path id="555rbzr9ft" d="M3.585 1.08C4.897-.145 6.85.01 8.573.117c2.482.155 8.571 1.223 9.124 4.142.793 4.187-5.866 4.837-8.698 5.199-1.527.195-4.47.439-5.786-.536-.198-.147-.379-.317-.54-.504-.293.389-.552.577-.776.563-.255-.016-.806-.216-1.654-.6-.05-.023-.092-.06-.121-.106-.083-.13-.045-.304.086-.387l1.626-1.032c-.171-.567-.237-1.16-.19-1.71.13-1.537.819-3.021 1.941-4.068z"/>
    </defs>
    <g fill="none" fill-rule="evenodd">
        <g>
            <g>
                <g>
                    <g>
                        <path fill="url(#4ugeyuuh9a)" d="M360 235.946H0V85.136c10.24 4.208 19.02 8.47 29.895 8.707 31.15.674 25.123-18.259 43.392-25.284 34.212-13.151 95.008 40.455 102.898 20.291 4.58-11.711-8.152-35.786 23.326-37.078 31.327-1.287 26.362-15.832 25.991-20.238C223.575 8.572 243.243.64 271.31 12.47c18.49 7.796 25.913 6.228 33.197 1.91 6.865-4.065 18.429-18.535 39.62-13.223 4.11 1.03 12.264 3.563 15.874 4.924v229.865z" transform="translate(0 -205) translate(0 205) translate(0 14.595)"/>
                        <path fill="#F5F5F5" d="M19.46 53.514c8.013-11.774 17.516-1.08 22.743-6.692 11.23-12.057 14.764-9.805 19.707-6.052 9.713 7.375 7.323-12.06 14.458-13.902 5.575-1.44 8.563 11.544 13.241 14.611 6.036 3.958 7.237-8.002 12.672-5.881 4.175 1.628 7.842 14.347 9.61 17.916H19.46z" transform="translate(0 -205) translate(0 205) translate(0 14.595)"/>
                        <path fill="url(#37q0ay4wxb)" d="M126.486 41.351c.31-3.141 4.67-13.763 14.102-6.741 5.047 3.757 4.569-4.351 8.328-7.355 3.357-2.683 9.25 5.968 12.84 14.096h-35.27z" transform="translate(0 -205) translate(0 205) translate(0 14.595)"/>
                        <path fill="url(#xcll4c737c)" d="M165.405 43.784c.365-3.611 2.378-7.298 5.684-7.298 3.307 0 6.95 3.687 8.911 7.298h-14.595z" transform="translate(0 -205) translate(0 205) translate(0 14.595)"/>
                        <path fill="#E0E0E0" d="M260.27 41.351c2.1-2.322 6.535-5.93 12.214-5.73 4.658.165 5.904 1.95 8.381 1.748 3.485-.284 5.177-8.846 13.52-2.449 4.757 3.648 5.38-3.988 9.667-7.016 6.542-4.62 11.895 5.693 14.597 13.447H260.27z" transform="translate(0 -205) translate(0 205) translate(0 14.595)"/>
                    </g>
                    <g>
                        <path fill="url(#knv17ffyvd)" d="M296.372 38.551c-6.96-5.468-14.2-10.936-22.994-7.463-6.89 2.721-28.989 21.25-53.243 64.993-6.887 12.42-16.616 36.34-29.19 71.757H360V.15C359.25.049 358.522 0 357.815 0c-17.907 0-22.427 31.54-35.833 43.18-9.55 8.295-17.385 1.833-25.61-4.629z" transform="translate(0 -205) translate(0 205) translate(0 14.595) translate(0 68.108)"/>
                        <path fill="url(#uh08nn0qge)" d="M36.256 61.392c-7.613 5.983-13.56 1.621-19.91-2.74C11.454 55.29 6.32 51.929 0 53.303v85.346h233.514c-17.658-47.162-31.61-42.201-43.707-37.24-8.003 3.283-15.194 6.565-22.108-5.243-29.56-50.478-40.596-28.754-53.485-18.94-20.566 15.657-29.236-24.62-47.42-29.885-2.678-.776-5.002-1.125-7.077-1.125-9.764 0-13.99 7.734-23.461 15.176" transform="translate(0 -205) translate(0 205) translate(0 14.595) translate(0 68.108)"/>
                    </g>
                    <g>
                        <path fill="url(#l451ov7hzf)" d="M0 68.108h321.081c-13.81-25.293-65.476-64.017-131.088-34.893-14.817 6.577-29.348 2.946-47.81-8.905C116.211 7.638 93.857 0 72.076 0 48.664-.001 25.889 8.418 0 24.324" transform="translate(0 -205) translate(0 205) translate(0 14.595) translate(0 167.838)"/>
                        <path fill="#FFF" d="M15.81 68.102c2.194-3.914 13.158-11.609 27.072-9.523 15.188 2.276 18.525-2.69 24.787-4.754 11.464-3.78 20.312 8.691 24.275.778 5.059-10.103 13.272-15.098 38.316-5.16 5.949 2.361 5.54-2.869 8.249-5.923 5.258-5.93 11.626 5.016 14.548 4.416 3.318-.683 2.305-5.342 4.248-9.332 4.047-8.313 11.034-.5 15.85-1.186 4.795-.683 7.362-9.832 12.79-7.982 11.6 3.95 7.96 27.177 7.242 32.358 3.299-4.421 9.921-7.662 9.921 6.314l-187.297-.006z" transform="translate(0 -205) translate(0 205) translate(0 14.595) translate(0 167.838)"/>
                        <path fill="url(#zkv9f6vzeg)" d="M104.516 43.784l.099.005.102.017.239.063c4.11 1.285 6.372 12.624 7.028 16.484l.203 1.28.112-.545c.455-2.087 2.309-9.526 5.877-10.928l.258-.09.198-.052c3.646-.802.843 8.863.086 11.292l-.175.546.54-.265c2.239-1.04 10.516-4.268 8.222 6.144l-.085.373H70.19l-.13-.199c-1.739-2.755-.308-4.377 3.372-4.771l.267-.026.365-.028c4.609-.285 8.532 1.782 9.516 2.35l.238.143-.366-.655c-1.241-2.271-5.028-9.61-2.396-10.115l.169-.023.162-.002c2.213.096 6.941 5.19 8.329 6.737l.39.442-.272-.95c-.737-2.683-2.54-10.086-.129-10.542l.167-.02.152.004c2.207.225 5.941 7.638 7.059 9.959l.325.687-.03-.22c-.076-.713-.156-2.846 1.61-2.981l.22-.006.3.011c2.665.16 4.492 1.81 4.492 1.81l-.23-1.607c-.541-4.044-1.68-14.323.746-14.322zM57.279 68.108c-.507-1.251.692-2.588 2.463-2.417 1.617.156 3.386.972 4.514 2.185l.203.232h-7.18z" transform="translate(0 -205) translate(0 205) translate(0 14.595) translate(0 167.838)"/>
                    </g>
                    <g>
                        <g>
                            <path fill="#A8A8A8" d="M14.712 14.14c.603 3.357 3.101 8.202.326 11.217-2.637 2.865-7.23 1.958-10.428 3.777-3.25 1.848-4.524 5.583-4.6 9.1-.176 8.218 2.965 17.38 8.535 23.346 8.721 9.341 22.57 14.233 36.863 13.8 4.116-.126 16.087-2.381 17.839-2.945V6.815c-1.958-.025-3.909.87-5.964 1.53-6.485 2.079-7.01 2.982-23.423-6.281C31.676.831 28.594 0 25.553 0c-3.346 0-6.644 1.005-8.65 3.583-2.242 2.88-2.818 7.069-2.191 10.557z" transform="translate(0 -205) translate(0 205) translate(0 14.595) translate(75.405 80.27) translate(221.351)"/>
                            <path fill="#858585" d="M16.59 3.59c-2.202 2.887-2.768 7.083-2.152 10.58.595 3.36 3.044 8.218.321 11.24-2.588 2.87-7.096 1.96-10.234 3.785C1.33 31.048.082 34.787.006 38.31c-.17 8.235 3.253 17.115 8.38 23.396.68.83 1.39 1.621 2.138 2.372 17.678 10.873-.702-12.612 13.888-22.311 7.217-4.8 21.143-9.845 15.082-17.487-4.43-5.587-7.79-7.761-6.44-10.834.744-1.694 2.91-3.287 9.758-2.028 9.363 1.729 16.2-1.632 13.902-3.203-.162.046-.324.097-.487.147-6.365 2.079-6.88 2.989-22.99-6.298C31.092.831 28.067 0 25.083 0c-3.286 0-6.523 1.007-8.492 3.59" opacity=".2" transform="translate(0 -205) translate(0 205) translate(0 14.595) translate(75.405 80.27) translate(221.351)"/>
                            <path fill="#858585" d="M45.083 41.634l1.126.87c.062.049.097.124.094.202l-.522 13.947c-.005.134.1.247.234.252.085.003.165-.038.212-.11l5.317-8.092c.074-.112.225-.144.337-.07l.01.007.222.162c.104.076.13.22.062.327l-6.458 10.126c-.023.037-.036.079-.038.122l-.982 26.277v.013l.998 70.009h-4.73l.045-67.668c0-.02-.002-.039-.006-.057l-5.22-21.617c-.011-.047-.036-.089-.071-.121l-5.114-4.743c-.09-.082-.094-.22-.012-.31.009-.01.019-.018.03-.026l.05-.038c.094-.07.223-.063.31.016l3.962 3.617c.099.09.253.083.343-.016.055-.06.076-.143.057-.221l-1.35-5.592c-.02-.08.003-.165.06-.224l.782-.823c.093-.097.246-.101.344-.008.032.03.056.07.067.113l6.616 24.585c.035.13.168.207.298.172.101-.027.174-.116.18-.22l1.799-31.065c.002-.04-.006-.08-.023-.117l-2.854-6.088c-.055-.116-.005-.254.111-.309.003 0 .005-.002.008-.003l.009-.004c.119-.05.257.002.314.118l2.097 4.34c.058.12.204.171.325.113.08-.039.132-.117.137-.205l.433-7.463c.007-.134.122-.237.257-.229.049.003.096.02.134.05z" transform="translate(0 -205) translate(0 205) translate(0 14.595) translate(75.405 80.27) translate(221.351)"/>
                        </g>
                        <g>
                            <path fill="#A8A8A8" d="M13.668 3.029c-1.824 2.434-2.27 5.975-1.735 8.923.515 2.838 2.596 6.933.335 9.482-2.148 2.421-5.926 1.655-8.543 3.192C1.067 26.19.043 29.346.002 32.32c-.094 6.946 2.826 14.435 7.152 19.734 9.016 11.045 25.261 13.685 38.09 8.93 7.58-2.812 13.511-8.535 16.973-15.943 3.294-7.05 5.303-16.944 1.012-24.016-1.35-2.222-4.087-4.342-7.55-4.859-5.776-.86-3.794-7.385-8.814-9.112-1.78-.612-3.011-.528-4.377-.444-2.696.167-5.913.333-14.9-4.865C25.786.702 23.25 0 20.752 0c-2.749 0-5.451.85-7.084 3.029" transform="translate(0 -205) translate(0 205) translate(0 14.595) translate(75.405 80.27) translate(0 52.297)"/>
                            <path fill="#858585" d="M13.578 2.996c-1.81 2.408-2.255 5.91-1.722 8.827.51 2.804 2.58 6.857.33 9.378-2.135 2.395-5.888 1.636-8.486 3.158C1.06 25.905.04 29.025.002 31.966c-.097 6.871 2.807 14.28 7.103 19.52.413.505.84.99 1.286 1.457 16.178 8.94 4.463-18.32 9.863-23.268 1.822-1.67 4.571-1.19 7.2-.709 2.306.421 4.52.842 5.935-.186 1.513-1.098 1.392-3.27.213-4.925-3.637-5.095-9.483-10.52-6.592-13.601 1.545-1.65 4.62-.745 10.415-.726 6.695.019 10.147-1.735 7.424-3.026-2.84.137-5.8.778-15.44-4.78C25.618.694 23.101 0 20.62 0c-2.731 0-5.418.84-7.042 2.996" opacity=".2" transform="translate(0 -205) translate(0 205) translate(0 14.595) translate(75.405 80.27) translate(0 52.297)"/>
                            <path fill="#858585" d="M31.25 35.274l.038.01c.117.036.19.154.168.275l-1.813 10.022c-.007.04-.029.075-.058.1l4.16 22.193c.024.131.15.218.281.193.098-.018.174-.095.193-.193l3.732-19.888c.025-.131.15-.218.282-.193.049.01.094.034.129.07l.79.823c.053.054.077.13.065.206l-.796 4.975 6.04-9.054c.075-.111.225-.14.336-.067l.038.032.096.099c.08.082.092.21.027.304l-6.74 9.96-2.931 18.339-.063 29.898h-3.62l.394-32.305-2.87-18.33-7.168-7.378c-.08-.082-.09-.208-.028-.303l.045-.067c.07-.105.212-.134.317-.064l.034.027 6.6 6.505-2.201-14.062c-.011-.071.01-.144.058-.198l.672-.755c.088-.1.24-.108.34-.02.04.036.067.084.077.137l1.418 7.561 1.71-8.685c.023-.115.134-.19.249-.167z" transform="translate(0 -205) translate(0 205) translate(0 14.595) translate(75.405 80.27) translate(0 52.297)"/>
                        </g>
                    </g>
                    <g>
                        <path fill="#858585" d="M22.685 33.974v1.98c0 .295-.242.536-.537.536l-1.473-.001v3.554h.288c.295 0 .536.242.536.537v1.444c0 .295-.241.536-.536.536v4.4c0 .552-.452 1.004-1.005 1.004h-6.112c-.552 0-1.004-.452-1.004-1.005v-4.4c-.295 0-.536-.24-.536-.535V40.58c0-.295.24-.536.536-.536l.292-.001v-3.554h-1.478c-.294 0-.536-.24-.536-.535v-1.98h11.565zm-2.497 2.515h-6.567v3.554h6.567v-3.554z" transform="translate(0 -205) translate(0 205) translate(0 14.595) translate(184.865 75.405)"/>
                        <path fill="#A8A8A8" d="M16.204.185C7.192.545 0 7.97 0 17.07c0 7.26 6.16 13.829 11.124 16.904H22.686c4.963-3.075 11.123-9.644 11.123-16.904 0-9.1-7.192-16.525-16.204-16.885-.233-.01-.467-.02-.7-.02-.234 0-.467.01-.701.02" transform="translate(0 -205) translate(0 205) translate(0 14.595) translate(184.865 75.405)"/>
                        <path fill="#F5F5F5" d="M17.654.185c-.25-.01-.5-.02-.75-.02-.249 0-.499.01-.748.02C8.414.642 2.274 8.028 2.274 17.07c0 7.26 5.328 13.829 9.626 16.904h10.01c4.298-3.075 9.625-9.644 9.625-16.904 0-9.042-6.14-16.428-13.881-16.885" transform="translate(0 -205) translate(0 205) translate(0 14.595) translate(184.865 75.405)"/>
                        <path fill="#A8A8A8" d="M6.735 17.07c0 7.26 3.707 13.829 6.688 16.904h6.964c2.98-3.075 6.687-9.644 6.687-16.904 0-9.333-4.546-16.905-10.17-16.905-5.622 0-10.17 7.572-10.17 16.905" transform="translate(0 -205) translate(0 205) translate(0 14.595) translate(184.865 75.405)"/>
                        <path fill="#F5F5F5" d="M16.905.165c-2.246 0-4.059 7.572-4.059 16.905 0 7.26 1.48 13.829 2.67 16.904h2.779c1.188-3.075 2.668-9.644 2.668-16.904 0-9.333-1.813-16.905-4.058-16.905" transform="translate(0 -205) translate(0 205) translate(0 14.595) translate(184.865 75.405)"/>
                        <path fill="url(#bovp21fzhh)" d="M17.115 15.044c-2.065 4.403-6.917 6.482-10.836 4.644C2.359 17.849.857 12.79 2.922 8.387c2.065-4.403 6.917-6.482 10.836-4.644 3.92 1.839 5.422 6.898 3.357 11.301" opacity=".299" transform="translate(0 -205) translate(0 205) translate(0 14.595) translate(184.865 75.405)"/>
                    </g>
                </g>
                <g transform="translate(0 -205) translate(0 205) translate(201.892 138.649)">
                    <mask id="tgvrcaq2vj" fill="#fff">
                        <use xlink:href="#ltcbzyo5ri"/>
                    </mask>
                    <g mask="url(#tgvrcaq2vj)">
                        <g>
                            <g fill="#000">
                                <path d="M122.635 2.027c0 .935-27.453 1.692-61.318 1.692C27.453 3.72 0 2.962 0 2.027 0 1.093 27.453.336 61.317.336c33.865 0 61.318.757 61.318 1.691" transform="translate(0 41.706) translate(1.597 80.281)"/>
                                <path d="M199.356 2.027c0 1.12-31.402 2.028-70.138 2.028-38.736 0-70.138-.908-70.138-2.028S90.482 0 129.218 0c38.736 0 70.138.908 70.138 2.027" transform="translate(0 41.706) translate(1.597 80.281)"/>
                            </g>
                            <g>
                                <g>
                                    <path fill="#1F1F1F" d="M10.436 0C4.672 0 0 7.831 0 17.492c0 9.66 4.672 17.492 10.436 17.492h10.095V0H10.436z" transform="translate(0 41.706) translate(7.48 40.112) translate(0 7.212)"/>
                                    <path fill="#292929" d="M30.967 17.492c0 9.66-4.672 17.492-10.436 17.492-5.763 0-10.436-7.831-10.436-17.492C10.095 7.832 14.768 0 20.531 0c5.764 0 10.436 7.832 10.436 17.492" transform="translate(0 41.706) translate(7.48 40.112) translate(0 7.212)"/>
                                    <path fill="#666" d="M28.062 17.492c0 7.246-3.371 13.12-7.53 13.12-4.16 0-7.531-5.874-7.531-13.12 0-7.245 3.371-13.12 7.53-13.12 4.16 0 7.531 5.875 7.531 13.12" transform="translate(0 41.706) translate(7.48 40.112) translate(0 7.212)"/>
                                </g>
                                <g>
                                    <path fill="#1F1F1F" d="M10.526 0C4.762 0 .09 7.83.09 17.492c0 9.66 4.672 17.492 10.436 17.492h10.095V0H10.526z" transform="translate(0 41.706) translate(7.48 40.112) translate(80.57 7.212)"/>
                                    <path fill="#1F1F1F" d="M31.057 17.492c0 9.66-4.672 17.492-10.436 17.492-5.763 0-10.436-7.831-10.436-17.492C10.185 7.832 14.858 0 20.621 0c5.764 0 10.436 7.831 10.436 17.492" transform="translate(0 41.706) translate(7.48 40.112) translate(80.57 7.212)"/>
                                    <path fill="#666" d="M28.152 17.492c0 7.246-3.371 13.12-7.53 13.12-4.16 0-7.531-5.874-7.531-13.12 0-7.246 3.371-13.12 7.53-13.12 4.16 0 7.531 5.874 7.531 13.12" transform="translate(0 41.706) translate(7.48 40.112) translate(80.57 7.212)"/>
                                </g>
                                <path fill="#000" d="M109.186 31.943c.503-1.736.889-3.564 1.135-5.463C112.033 13.3 106.444 1.74 97.84.66c-8.605-1.08-16.596 8.783-18.68 21.913-.57 3.6-.817 6.698-.789 9.37h30.816z" transform="translate(0 41.706) translate(7.48 40.112)"/>
                                <g>
                                    <path fill="#1F1F1F" d="M10.436 0C4.672 0 0 7.831 0 17.492c0 9.66 4.672 17.492 10.436 17.492h10.095V0H10.436z" transform="translate(0 41.706) translate(7.48 40.112) translate(74.209 7.212)"/>
                                    <path fill="#292929" d="M30.967 17.492c0 9.66-4.672 17.492-10.436 17.492-5.763 0-10.436-7.831-10.436-17.492C10.095 7.832 14.768 0 20.531 0c5.764 0 10.436 7.832 10.436 17.492" transform="translate(0 41.706) translate(7.48 40.112) translate(74.209 7.212)"/>
                                    <path fill="#A8A8A8" d="M28.062 17.492c0 7.246-3.371 13.12-7.53 13.12-4.16 0-7.531-5.874-7.531-13.12 0-7.245 3.371-13.12 7.53-13.12 4.16 0 7.531 5.875 7.531 13.12" transform="translate(0 41.706) translate(7.48 40.112) translate(74.209 7.212)"/>
                                    <path fill="#C7C7C7" d="M25.11 9.703c-.143-.255-.527-.145-.515.148.012.273.019.55.019.829 0 6.159-2.866 11.151-6.402 11.151-1.247 0-2.41-.623-3.394-1.698-.18-.198-.512-.031-.471.234.728 4.765 3.22 8.276 6.185 8.276 3.535 0 6.4-4.992 6.4-11.15 0-3.033-.695-5.78-1.822-7.79" transform="translate(0 41.706) translate(7.48 40.112) translate(74.209 7.212)"/>
                                </g>
                            </g>
                            <g fill="url(#ukv62yoq6k)" transform="translate(0 41.706) translate(39.317 17.243)">
                                <path d="M8.459.005C6.55-.038 4.484.183 2.779 1.06 1.45 1.74-.909 3.99.367 5.626c.756.97 2.048.011 2.707-.467.828-.602 4.8-3.132 5.658-3.776C9.993.435 10.044.041 8.459.005"/>
                            </g>
                            <g fill="url(#sqrspjfntl)" transform="translate(0 41.706) translate(.14)">
                                <path d="M199.582 42.98c-.044-1.423-.437-2.64-1.09-3.875-.866-1.64-.468-3.067-.355-4.816.085-1.324.117-2.72-.166-4.026-.352-1.63-1.44-2.13-2.473-3.288-.857-.962-1.32-1.98-2.656-2.375-.733-.217-1.182-.268-1.864-.68-.823-.496-1.624-1.026-2.411-1.576-5.634-3.936-10.666-8.508-16.706-11.895-5.92-3.319-12.33-5.805-18.986-7.255-6.76-1.473-13.716-2.066-20.612-2.58-7.16-.532-14.326-.607-21.501-.599-7.465.01-17.074.542-24.532 1.33-3.37.357-6.553 1.025-9.776 1.824-3.514.87-6.342 1.972-9.478 3.37-8.654 3.855-23.565 14.441-27.313 17.09-.949.671-2.402 1.401-3.808 1.696-5.638 1.184-11.037 3.283-14.561 5.346-1.244.729-2.357 1.454-3.587 2.195-1.345.81-2.639 1.213-4.088 1.848-1.461.64-3.062 1.158-4.428 1.814-1.363.655-2.284 1.196-3.51 2.092-1.053.77-2.222 2.025-2.418 3.344-.182 1.222.332 2.949-.37 4.028-.183.283-.978.926-1.236 1.103-1.38.946-1.479 3.088-1.54 4.685-.178 4.599.506 8.794.27 11.321-.144 1.56-.449 3.126-.083 4.678.268 1.14 1.005 3.304 2.1 3.914.452.25.821.221 1.256.572.349.28.562.626.994.802.324.131.64.144.964.144h82.586c.044-3.679.42-7.854 1.296-12.038.789-3.765 2.989-8.874 4.718-11.43 5.474-8.09 12.86-6.297 15.355-4.355 4.336 3.374 6.017 9.83 6.017 15.027 0 6.275-.972 9.008-1.66 11.64h58.546c.324 0 .618-.052.826-.294.425-.495-.868-4.568.17-10.69.577-3.41 1.45-6.735 3.085-9.797 1.499-2.806 4.55-7.73 8.62-7.41 5.095.403 8 6.748 8.78 10.513 1.335 6.453.554 10.375-.071 13.944-.252 1.434.963.562 1.71.13 1.167-.675 1.79-1.034 2.531-1.952.915-1.133.8-2.401.937-3.783.341-3.44 1.011-6.666-.004-10.383-.844-3.091.62-6.221.522-9.353"/>
                            </g>
                            <g>
                                <path fill="url(#yah21n8sgm)" d="M49.136 33.747c-1.285-.722-1.893-.973-3.594-.973H10.337c-2.446 0-3.404-.222-5.359 1.559-1.806 1.646.548 1.386 1.687 1.386h43.69c.471 0 .68-.302.505-.654-.161-.325-1.213-1.031-1.724-1.318" transform="translate(0 41.706) translate(.173 37.492)"/>
                                <path fill="url(#g3h73lb59n)" d="M52.048 11.559c-1.357-1.293-3.07-2.805-4.708-3.775-1.245-.737-3.248-1.141-5.834-1.06-4.501.14-10.919.397-15.827.397-4.472 0-7.44.04-11.64-.22-2.11-.13-3.26-.4-4.714.792-1.437 1.176-3.514 3.988-4.354 5.677-.58 1.168-.135 3.323.752 5.737.698 1.9 2.864 6.523 3.892 8.27.59 1.005 2.379 1.914 4.196 1.914h26.304c2.203 0 3.489-.993 4.504-2.094 1.843-2 7.06-8.86 8.21-10.713 1.205-1.944.742-3.475-.781-4.925" transform="translate(0 41.706) translate(.173 37.492)"/>
                                <path fill="#383838" d="M36.829 24.915H13.428c-.375 0-.679-.305-.679-.68v-5.652c0-.376.304-.68.679-.68h23.4c.376 0 .68.304.68.68v5.652c0 .375-.304.68-.68.68" transform="translate(0 41.706) translate(.173 37.492)"/>
                                <path fill="url(#11d3pytnoo)" d="M78.756 23.16c-.83-1.13-2.908-3.813-4.287-4.94-1.268-1.037-3.478-.92-5.496-.92-.428 0-.463.292-.278.584.992 1.565 1.93 3.044 2.98 4.571 1.13 1.644 2.138 2.82 1.535 4.824-.19.63-1.206 1.273-2.404 1.577-1.736.44-12.313 2.253-15.907 2.923-.329.061-.252.382-.023.596.74.69 2.825.423 4.083.307 1.815-.166 14.76-1.652 16.45-1.954 1.521-.272 2.524-.91 3.312-1.556.724-.595 1.435-1.495 1.561-2.207.293-1.647-.586-2.526-1.526-3.805" transform="translate(0 41.706) translate(.173 37.492)"/>
                                <path fill="url(#472gpax62p)" d="M3.746 31.67c-.144-.526-.889-2.182-1.057-3.489-.15-1.17-.112-2.469-.105-3.688.013-2.22.062-3.824.124-6.09.013-.482-.488-.843-.655-.913-.523-.221-1.076-.336-1.656-.338-.247 0-.397.267-.397.457 0 0 .265 8.21.354 9.213.065.731.158 1.62.314 2.334.28 1.277.749 2.886 2.063 3.67.926.55 1.202-.469 1.015-1.156" transform="translate(0 41.706) translate(.173 37.492)"/>
                                <path fill="url(#ke38qzbgaq)" d="M30.787 3.648c-1.007.986-2.422 1.174-3.159.42-.736-.753-.517-2.163.49-3.149 1.009-.985 2.423-1.173 3.16-.42.736.754.517 2.164-.49 3.15" transform="translate(0 41.706) translate(.173 37.492)"/>
                                <path fill="#E6FFEA" d="M29.648 2.62c.385 0 .616.263.515.587H28.77l.736-.55c.025-.018.053-.03.08-.035.022-.002.042-.002.063-.002zm-1.255.083l.008-.006c.065-.048.142-.076.213-.076l.75-.001-.67.5c-.155.116-.347.116-.43 0-.083-.115-.025-.301.129-.417zm2.261-1.368c.083.116.025.303-.13.418l-.934.698c-.033.024-.071.038-.107.038h-.803l1.545-1.154c.154-.115.346-.115.43 0zm-.982.281l-.183.138c-.085.064-.184.1-.276.1h-.494c.065-.137.218-.238.36-.238h.593zm.476-.367l-.183.138c-.084.063-.184.099-.276.099h-1.008c.066-.137.218-.237.36-.237h1.107z" transform="translate(0 41.706) translate(.173 37.492)"/>
                            </g>
                            <g>
                                <path fill="#B9FAC2" d="M79.51 35.888c0 .91-.696 1.647-1.555 1.647-.86 0-1.557-.737-1.557-1.647s.697-1.647 1.557-1.647c.859 0 1.556.737 1.556 1.647" transform="translate(0 41.706) translate(0 26.713)"/>
                                <path fill="#E6FFEA" d="M2.76 34.845l-.004.427c-.002.548-.013 1.113-.006 1.673-.288.362-.715.59-1.194.59-.41 0-.781-.167-1.06-.443-.304-.3-.496-.728-.496-1.203 0-.423.149-.805.396-1.096.283-.339.698-.552 1.16-.552.485 0 .92.236 1.205.604M78.806 35.888c0 .91-.697 1.647-1.556 1.647-.86 0-1.557-.737-1.557-1.647s.697-1.647 1.557-1.647 1.556.737 1.556 1.647M75.943 12.194c-6.31 1.416-20.464 4.788-21.805 5.13-2.015.514-.295 1.25 1.117 2.086 2.549 1.507 4.685 2.746 7.71 2.698 6.04-.095 12.387-.517 18.222-1.498 3.197-.537 5.876-1.23 8.667-2.894 1.2-.715 2.94-2.126 3.935-3.1.334-.325.974-1.042 1.082-1.512.105-.458-4.014-1.308-4.5-1.413-1.581-.343-3.175-.644-4.79-.778-.39-.032-.786-.047-1.186-.047-2.802 0-5.791.731-8.452 1.328M9.355 17.645c0-.425-.486-.93-.754-1.313-.469-.669-.739-1.64-.83-2.47-.104-.929.16-3.284-.667-2.967-.757.291-2.109 1.398-2.75 1.983-1.403 1.277-1.23 2.793-1.153 4.56.054 1.239.766 6.076 2.57 4.274.74-.738 1.25-1.36 2-2.154.602-.639 1.586-1.411 1.584-1.913" transform="translate(0 41.706) translate(0 26.713)"/>
                            </g>
                            <g>
                                <path fill="url(#033ju7b75r)" d="M99.24 1.42h.295c3.05.02 6.095.335 9.124.782l.293.043.225.035c4.707.733 8.945 2.222 13.288 4.206l.207.095.134.062c4.428 2.063 11.867 6.762 12.567 7.406l.02.018.04.043c1.266 1.415-3.039 4.65-3.816 5.136l-.142.086c-1.032.617-2.068 1.081-3.227 1.433l-.14.042-.124.035c-1.038.286-2.29.406-3.381.497l-1.723.141c-4.807.394-9.614.776-14.425 1.114l-1.604.111c-5.344.37-22.334 1.733-27.013 1.742H79.7l-.212-.003c-.852-.013-1.738-.083-2.589-.176l-.211-.024-.317-.037c-1.046-.126-2.088-.283-3.124-.472l-.667-.126c-.884-.17-2.356-.485-2.815-1.092l-.025-.035-.016-.026c-.485-.863 2.454-3.828 3.23-4.643l.296-.312c3.008-3.192 6.045-6.609 9.375-9.615l.278-.25.096-.085c3.171-2.814 6.621-5.224 10.93-5.795 1.686-.224 3.373-.326 5.058-.336h.253zM56.133.049h.497c9.269.013 18.047.381 26.875 1.32l.473.05-.175.148c-1.168.986-2.243 2.029-2.643 2.393l-.132.119c-2.603 2.336-12.032 11.749-14.515 14.427l-.073.079-.054.06c-.857.944-1.909 2.431-3.01 3.059l-.07.039-.062.032c-.762.38-1.692.355-2.587.307l-.287-.016c-.266-.014-.527-.027-.778-.027h-.124l-.096.002c-3.202.016-12.113-1.566-31.92-1.66l-.603-.003-.573-.001c-6.276 0-18.224.297-24.92.738l-.412.028-.065.004c-2.098.11.226-1.736 1.06-2.45l.145-.123C5.993 15.25 14.172 9.834 16.88 8.142l.16-.098.22-.137c2.519-1.549 5.336-3.087 8.035-4.313l.245-.11.686-.307c3.077-1.367 4.324-1.802 7.14-2.17l.308-.04.161-.02c2.874-.35 7.032-.635 10.08-.722l.178-.005C48.036.116 51.858.054 55.599.05l.534-.001z" transform="translate(0 41.706) translate(43.253 3.217)"/>
                                <path fill="#4D4D4D" d="M51.233 5.253l.046.001c.094.002.199.01.317.02l.189.015.205.016c6.688.53 12.05 1.881 18.261 5.96l.207.137c.422.282.848.643.143 1.393l-.032.033-4.393 4.533c-.968.997-1.823 1.872-2.344 2.394l-.22.22-.04.038c-.629.601-1.18.7-2.043.645l-.112-.008-2.27-.175c-4.761-.367-8.189-.64-13.154-.872l-.254-.012-.038-.002c-.696-.042-.657-.316-.515-.788l.032-.109.025-.08c.85-2.712 4.594-11.942 5.1-12.749.305-.487.514-.603.86-.61h.03zm-9.337-.429h.052c.523.016.45.407.328.64l-.016.028-.055.095c-1.383 2.391-3.733 6.852-5.05 9.61l-.16.336-.014.028c-.177.316-.645.247-.787.187l-.011-.005-.075-.036c-2.46-1.146-6.737-1.331-8.244.942l-.045.07-.01.016c-.08.144-.078.329-.282.342l-.026.001h-.185c-3.274.003-6.6.235-9.77 1.12l-.178.052-.1.029c-1.422.424-2.794 1.132-4.295 1.164h-.104l-3.798.002H8.027c-.333-.02-.104-.498.14-.755l.03-.032.069-.065c2.28-2.162 10.342-7.273 15.08-9.36l.143-.063.168-.072.331-.143c5.407-2.307 10.634-3.9 17.888-4.13h.02zm64.6.994l.023.001.024.002.024.004.522.1c5.509 1.059 7.948 2.016 11.996 3.755l.256.11c4.26 1.856 8.713 4.935 10.789 6.676l.062.053.024.021c.487.435.12.858-.378.872l-1.544.005c-1.745.01-4.221.027-5.54.032l-.581.001h-.028c-.255-.013-.52-.194-.614-.492l-.01-.032-.029-.113c-.133-.519-.198-.885-.326-1.407l-.048-.19c-.166-.657-.472-1.712-1.592-1.743h-.05l-.209.001c-1.096.012-4.304.098-5.801.104h-.3c-.762-.013-1.86-.094-2.261.847l-.019.045-.022.058c-.317.867-.454 2.436-.537 3.686l-.024.374c-.037.42-.331.875-.663.768l-.022-.008-.01-.005c-.173-.094-.34-.811-.523-1.684l-.095-.45c-.43-2.013-1.536-6.434-2.769-10.835-.082-.294.026-.54.252-.555h.023zM33.342 16.306h.08c1.05.015 2.142.336 2.902.8l.073.045c.118.076.27.18.217.348l-.008.022-.01.028-.025.065c-.132.36-.395 1.215-.493 1.493l-.01.026-.01.023c-.058.13-.178.151-.299.155l-.945.014c-.705.007-1.564.002-1.812-.076l-.019-.006-.037-.016c-.5-.227-.488-1.016-.722-1.384l-.019-.027-.022-.03c-.165-.202-.47-.315-.778-.396l-.08-.02c-.6-.163-.21-.41.013-.552l.011-.007c.537-.343 1.214-.495 1.918-.505h.075zM62.99 9.838h-8.744l-.037.001c-.6.017-1.124.446-1.197.993l-.004.035-.429 4.36c-.07.718.447 1.319 1.165 1.34H64.084c.704-.02 1.165-.602 1.053-1.304l-.006-.036-.813-4.36-.007-.035c-.121-.546-.682-.975-1.283-.993h-.038zm34.365-4.655h.044c.614.016 1.041.365 1.283.944l.018.042.043.114c.34.92.471 2.038.673 3l.076.354c.216 1.037.344 2.022.492 3.07l.032.226.005.044c.123 1.022-.694 1.41-.972 1.029l-.011-.017-.051-.081c-.333-.542-.5-1.107-.679-1.645l-.037-.112c-.248-.747-.677-2.613-1.792-2.658h-.042l-1.237.001c-1.576.006-3.57.023-4.361.06l-.078.003-.061.003c-1.122.07-1.841.37-2.465 1.29l-.033.05-.03.046c-.303.495-.49 1.32-.929 1.68l-.041.033-.034.024c-.534.36-1.09.034-1.431-.207l-.154-.112-.02-.015c-.343-.258-1.634-1.374-2.028-1.705l-.089-.075c-.096-.081-.218-.192-.293-.293l-.023-.034-.014-.023c-.128-.242.117-.5.285-.66l.048-.045.087-.082c1.552-1.443 3.435-2.706 5.545-3.43l.12-.04.12-.038c2.538-.803 5.765-.643 7.955-.74h.04l.039-.001z" transform="translate(0 41.706) translate(43.253 3.217)"/>
                                <path fill="url(#99gle43dhs)" d="M35 1.548c-2.936.324-5.03.754-7.553 1.94-3.797 1.784-7.297 3.67-10.849 5.837-1.459.89-6.055 3.924-5.253 5.988.858 2.21 13.213-1.18 15.535-1.941 2.172-.713 16.783-5.07 21.609-5.826 5.408-.846 8.529-.945 13.962-1.177 2.512-.107 5.887.093 7.879-1.547 1.542-1.27 3.418-2.925 1.855-3.188C68.772 1.062 62.442.86 55.909.86c-8.812 0-17.995.367-20.91.688" opacity=".299" transform="translate(0 41.706) translate(43.253 3.217)"/>
                                <path fill="#000" d="M135.393 14.067c-.103-.103-.438-.345-.938-.682.958 1.482-3.176 4.615-3.86 5.038-1.094.678-2.16 1.156-3.4 1.525-1.132.337-2.579.48-3.755.578-5.674.473-11.35.937-17.031 1.332-5.124.356-22.426 1.771-26.87 1.752-.971-.005-1.996-.09-2.965-.203-1.248-.144-2.49-.335-3.724-.573-.762-.148-2.498-.453-3.05-1.113-.138.322-.177.589-.06.76.483.714 2.358 1.036 3.162 1.19 1.254.237 2.517.428 3.786.573.984.112 2.026.198 3.012.202 4.518.02 22.104-1.395 27.311-1.752 5.774-.394 11.543-.858 17.31-1.332 1.196-.098 2.637-.218 3.788-.555 1.26-.37 2.373-.869 3.485-1.547.72-.438 5.207-3.787 3.799-5.193" transform="translate(0 41.706) translate(43.253 3.217)"/>
                            </g>
                            <g>
                                <path fill="#0D4207" d="M186.75 11.997c-10.318.476-52.463 4.69-63.186 6.108-2.7.357-5.445.588-8.14.978-1.2.173-6.703.695-6.705 1.96-.002 1.426 3.057 1.657 5.183 1.723 2.652.082 5.219.02 7.733-.454 5.165-.973 9.98-2.488 15.125-3.595 5.277-1.135 10.677-2.013 16.03-2.615 6.202-.697 31.014-3.18 32.488-3.342.418-.046 2.822-.206 3.06-.57.168-.261-1.168-.212-1.588-.193" opacity=".2" transform="translate(0 41.706) translate(2.93 17.203)"/>
                                <path fill="#FFF" d="M163.812 39.428c-1.925-.233-3.847-.122-5.774.02-3.758.278-26.678 2.443-34.373 3.377-.786.096-8.085.934-7.152 2.254.296.42 1.782.27 2.227.275 1.664.02 37.049-2.774 41.498-3.12 1.948-.15 8.394-.508 8.523-1.123.145-.693-3.513-1.508-4.949-1.683" opacity=".2" transform="translate(0 41.706) translate(2.93 17.203)"/>
                                <path fill="#0D4207" d="M168.23 6.763c-.495-.866-26.422-.078-40.924.549-2.266.098-19.539 1.248-21.798 1.372-4.621.253-9.473 1.042-14.033 1.832-8.45 1.465-16.85 3.408-29.335 7.555-2.338.777-13.5 5.347-14.803 6.81-.717.805 3.42-1.62 8.787-3.357 10.912-3.531 21.755-6.07 35.819-8.13 3.681-.54 8.602-.523 10.741-.487 2.514.043 7.296.027 9.808.006 4.278-.035 8.46-.757 15.91-1.418 10.734-.952 40.523-3.517 39.828-4.732" opacity=".2" transform="translate(0 41.706) translate(2.93 17.203)"/>
                                <path fill="#0D2E07" d="M175.984.084c1.885 1.72 2.177 3.942 2.461 6.967l.052.565c.066.706.238 1.402.436 2.126l.216.782c.238.87.46 1.764.502 2.68l.014.321c.186 4.533-.174 7.919-1.16 10.943-.546 1.678-1.769 3.285-2.981 4.84l-.399.512c-.284.366-.556.719-.813 1.07-1.5 2.045-2.933 4.974-3.831 7.834-.239.76-.492 1.73-.745 2.73l-.445 1.777c-.343 1.363-.69 2.68-1.014 3.559l-.168.444c-.574 1.503-1.28 2.862-5.213 2.862h-50.582c-.116 0-.209-.094-.209-.21 0-.115.093-.208.209-.208h3.07l.007-.073c.843-8.133.666-13.714.216-22.249l-.073-1.372c-.007-.13-.023-.318-.045-.544l-.119-1.179c-.103-1.049-.208-2.268-.169-3.045.005-.083.013-.18.023-.29l.06-.593c.074-.754.146-1.754-.025-2.58-.3-1.451-.77-2.896-1.242-4.3l-.304-.903c-.34-1.01-.678-2.047-.948-3.084-.03-.112.037-.226.149-.255.111-.028.225.038.255.15.267 1.024.603 2.053.94 3.058l.372 1.106c.452 1.351.897 2.74 1.186 4.143.184.885.109 1.927.032 2.707l-.057.563c-.01.115-.02.217-.024.3-.035.705.054 1.81.15 2.801l.138 1.374c.021.227.038.413.045.548l.088 1.647c.44 8.412.605 13.978-.236 22.07h33.43l.048-.4.212-1.683c.193-1.553.38-3.256.347-4.374-.008-.292-.104-.752-.204-1.24l-.049-.233c-.12-.59-.241-1.23-.252-1.784-.033-1.595 1.346-10.099 1.623-11.787.424-2.589.296-8.008.021-10.602-.078-.732-.084-1.444-.086-2.133v-.45c-.003-.777-.017-1.58-.137-2.423-.226-1.589-1.28-3.097-2.174-4.233-.072-.09-.056-.222.034-.294.091-.071.222-.056.293.035l.15.192c.891 1.153 1.883 2.644 2.11 4.241.124.87.139 1.687.141 2.477v.296c.002.728.003 1.48.084 2.248l.02.194c.263 2.685.375 7.96-.044 10.52l-.162.991c-.719 4.453-1.479 9.596-1.456 10.72.01.522.13 1.148.248 1.726l.104.508c.082.403.146.753.154 1.019.034 1.174-.166 2.952-.364 4.548l-.19 1.497-.051.424h13.243c3.812 0 4.333-1.286 4.896-2.785l.069-.183c.3-.793.623-1.995.946-3.267l.526-2.096c.253-1.004.508-1.98.75-2.748.91-2.902 2.367-5.876 3.893-7.958.223-.303.455-.608.697-.92l.743-.954c1.115-1.438 2.201-2.919 2.693-4.429.992-3.045 1.339-6.473 1.125-11.115-.04-.874-.257-1.746-.49-2.595l-.175-.633c-.211-.769-.415-1.557-.487-2.34l-.062-.661c-.272-2.883-.568-5.004-2.317-6.601-.085-.078-.091-.21-.014-.296.078-.085.21-.09.295-.013zM50.563 33.072c.222.292.41.575.589.851l.294.458c.56.86 1.12 1.601 2.412 2.115 1.445.574 4.24.621 6.945.667l.736.013c.366.007.73.014 1.089.024l.891.023 2.747.069c1.7.046 3.1.1 3.548.188 1.125.223 1.81.579 2.531 1.313.081.082.08.215-.002.296-.04.04-.094.06-.146.06-.055 0-.108-.02-.15-.063-.647-.66-1.24-.974-2.243-1.181l-.07-.014c-.461-.092-2.14-.147-4.006-.195l-2.446-.06-.665-.018c-.358-.01-.722-.017-1.087-.024l-1.625-.029c-2.448-.047-4.85-.144-6.2-.68-1.464-.582-2.077-1.45-2.676-2.38l-.24-.374c-.17-.263-.35-.532-.558-.806-.07-.092-.053-.223.04-.293.091-.07.222-.052.292.04zM4.586 20.25c.358.244.415.93.428 1.948l.006.525c.003.241.01.46.028.625.102.923.399 1.81.793 2.373l.116.157.175.228c.251.328.502.69.501 1.048.002.442-.5.945-1.054 1.478l-.234.225c-.126.122-.245.24-.353.354-.24.255-.456.492-.662.72L4 30.296c-.32.354-.635.698-1.012 1.075-.307.306-.609.46-.902.46-.107 0-.213-.02-.317-.061C.517 31.28.1 27.795.063 26.959c-.005-.116.084-.213.2-.219.119-.003.212.085.217.2l.004.077c.066 1.162.554 3.958 1.408 4.35l.03.013c.082.033.335.131.772-.305.365-.365.674-.7.985-1.045l.42-.466c.185-.204.378-.414.59-.639.112-.12.24-.244.368-.369l.322-.31c.408-.397.838-.84.837-1.09 0-.219-.2-.511-.397-.772l-.196-.255c-.044-.057-.086-.113-.123-.166-.433-.618-.757-1.578-.867-2.567-.024-.214-.03-.495-.032-.797l-.004-.43c-.009-.613-.042-1.397-.232-1.562l-.014-.01c-.006-.004-.042-.007-.11-.007-.272-.251.128-.388.345-.34zm78.083-.036c1.667.138 3.29.453 4.673.751l.498.107c3.94.852 4.172 1.216 4.26 1.354.06.094.057.18.044.234-.144.629-1.038 1.517-1.14 1.616-.978.957-2.733 2.39-3.973 3.13-2.813 1.677-5.528 2.38-8.74 2.92-5.285.888-11.426 1.393-18.253 1.501l-.173.002c-3.031 0-5.173-1.267-7.646-2.729-.117-.07-.237-.138-.356-.206l-.466-.265c-.79-.454-1.374-.835-1.314-1.284.042-.316.373-.536 1.074-.714.11-.03.225.038.253.15.029.113-.039.227-.15.255l-.085.022c-.649.178-.677.336-.678.343-.03.22.826.706 1.392 1.027.18.102.364.206.542.312l.547.322c2.197 1.29 4.192 2.348 6.89 2.348l.164-.001c6.806-.108 12.926-.61 18.19-1.495l.296-.05c3.037-.526 5.629-1.225 8.3-2.818 1.213-.724 2.934-2.13 3.895-3.07.346-.337.88-.958 1.008-1.35l-.019-.015c-.171-.123-.901-.473-3.994-1.14l-.595-.127c-1.339-.286-2.891-.582-4.478-.712-.115-.01-.2-.111-.191-.226.01-.115.106-.2.225-.192zm-67.804-4.064c-1.645 1.282-2.984 2.637-3.947 4.031-1.48 2.143-2.034 4.285-1.646 6.37.02.114-.055.224-.169.246l-.039.003c-.1 0-.188-.07-.207-.172-.409-2.199.168-4.449 1.714-6.687.974-1.41 2.323-2.78 3.978-4.075.38-.273.59.077.316.284zm86.72-8.368c.423.122.64.427.611.86-.077 1.178-.3 2.177-.766 3.448-.078.215-.433.734-.974.88l-.353.092-.56.142-2.997.748c-4.53 1.137-11.372 2.923-16.562 4.912l-.389.15c-.635.249-.952.444-.936 1.618.002.11-.08.2-.185.211l-.023.002c-.114 0-.207-.092-.209-.207-.02-1.425.488-1.73 1.16-1.998l.253-.097c5.768-2.232 13.639-4.214 18.117-5.328l1.598-.399c.395-.099.725-.183.978-.25.386-.104.653-.518.69-.62.452-1.231.667-2.196.742-3.332.015-.237-.075-.362-.31-.43-.111-.032-.175-.148-.144-.259.033-.11.149-.175.259-.143zm48.743 10.383c.116 0 .209.094.209.21 0 1.035-1.068 1.339-2.234 1.507l-.359.05c-1.523.207-2.193.241-4.376.305h-.058c-.675 0-1.2-.343-1.415-.928-.04-.109.016-.229.125-.268.108-.04.228.016.267.124l.01.027c.086.215.346.652 1.059.627l.78-.024c1.693-.055 2.343-.108 3.862-.32l.125-.019c1.29-.195 1.797-.503 1.797-1.082 0-.115.093-.209.208-.209zm35.801-3.4c.462 1.722.409 3.377-.138 4.319-.222.381-.524.631-.873.721-.1.027-.203.04-.305.04-1.17 0-2.483-1.631-3.1-3.932-.462-1.721-.409-3.376.139-4.319.222-.381.523-.63.873-.722 1.236-.322 2.732 1.39 3.404 3.893zm-3.094-3.513c-.07 0-.139.008-.206.025-.242.063-.45.24-.617.528-.486.836-.523 2.406-.096 4l.036.131c.608 2.137 1.9 3.712 2.861 3.465.243-.063.45-.24.617-.528.486-.836.524-2.406.096-4-.55-2.052-1.74-3.621-2.691-3.621zm-5.3 4.857c.096.064.123.195.058.292-.38.575-1.182.673-1.84.744l-.527.056c-1.13.118-2.192.209-3.352.209h-.11c-.343-.002-.645-.062-.897-.18-.307-.143-.532-.429-.603-.764-.024-.114.049-.226.163-.25.114-.024.226.049.25.163.043.206.181.38.368.468.197.092.44.139.721.14 1.257.003 2.402-.098 3.637-.23l.401-.042c.571-.064 1.18-.157 1.438-.547.065-.097.195-.124.292-.06z" opacity=".198" transform="translate(0 41.706) translate(2.93 17.203)"/>
                            </g>
                            <g transform="translate(0 41.706) translate(120.27 20.7)">
                                <mask id="swvncrmbdw" fill="#fff">
                                    <use xlink:href="#555rbzr9ft"/>
                                </mask>
                                <use fill="url(#ofxidk47hu)" xlink:href="#555rbzr9ft"/>
                                <path fill="url(#8i3crllnqv)" d="M8.86 6.762c4.472-.996 6.138-1.96 8.474-5.009 1.86-2.428 2.462-5.88 2.462-5.88l.812 12.486-18.9 3.34-1.973-.98-1.245-2.048 2.463-3.83C.686 7.357 3.322 7.997 8.86 6.763z" mask="url(#swvncrmbdw)"/>
                            </g>
                        </g>
                    </g>
                </g>
            </g>
        </g>
    </g>
</svg>
